<svg width="409" height="69" viewBox="0 0 409 69" fill="none" xmlns="http://www.w3.org/2000/svg">
  <path d="M21.6269 7.4013H26.4284V43.6739H50.4391V48.5096H21.6269V7.4013Z" fill="#000"/>
  <path d="M57.0439 17.0727H61.8454V31.583H81.0546V17.0727H85.8561V48.5096H81.0546V36.4187H61.8454V48.5096H57.0439V17.0727ZM61.8454 12.237H66.647V17.0727H61.8454V12.237ZM76.25 7.4013V12.237H66.647V7.4013H76.25ZM81.0546 12.237V17.0727H76.2531V12.237H81.0546Z" fill="#000"/>
  <path d="M99.6617 21.9085H94.8601V12.237H99.6617V21.9085ZM94.8601 36.4187H99.6617V43.6739H94.8601V36.4187ZM99.6617 7.4013H118.871V12.237H99.6617V7.4013ZM99.6617 21.9085H109.265V26.7442H99.6617V21.9085ZM118.871 48.5096H99.6617V43.6739H118.871V48.5096ZM109.268 26.7442H118.871V31.5799H109.268V26.7442ZM118.871 12.237H123.672V19.4922H118.871V12.237ZM123.672 31.583V43.6739H118.871V31.583H123.672Z" fill="#000"/>
  <path d="M142.882 12.237H128.474V7.4013H162.088V12.237H147.68V48.5096H142.878V12.237H142.882Z" fill="#000"/>
  <path d="M180.398 17.0727H185.2V38.8351H180.398V17.0727ZM185.2 12.237H190.001V17.0727H185.2V12.237ZM185.2 38.8351H190.001V43.6708H185.2V38.8351ZM190.001 7.4013H206.808V12.237H190.001V7.4013ZM190.001 43.6739H206.808V48.5096H190.001V43.6739ZM206.811 12.237H211.613V17.0727H206.811V12.237ZM206.811 38.8351H211.613V43.6708H206.811V38.8351ZM211.613 17.0727H216.414V21.9085H211.613V17.0727ZM211.613 33.9993H216.414V38.8351H211.613V33.9993Z" fill="#000"/>
  <path d="M223.918 17.0727H228.719V31.583H247.928V17.0727H252.73V48.5096H247.928V36.4187H228.719V48.5096H223.918V17.0727ZM228.719 12.237H233.521V17.0727H228.719V12.237ZM243.127 7.4013V12.237H233.524V7.4013H243.127ZM247.928 12.237V17.0727H243.127V12.237H247.928Z" fill="#000"/>
  <path d="M262.756 7.4013H267.557V43.6739H291.568V48.5096H262.756V7.4013Z" fill="#000"/>
  <path d="M298.59 7.4013H303.391V43.6739H327.402V48.5096H298.59V7.4013Z" fill="#000"/>
</svg>
