<svg preserveAspectRatio="xMidYMid meet" width="100%" height="100%" overflow="visible" style="display: block;" viewBox="0 0 176.09 73.86" fill="none" xmlns="http://www.w3.org/2000/svg">
<g id="Group">
<path id="Vector" d="M102.26 13.12H128.49L128.54 16.37C129.67 16.37 130.61 16.47 131.76 16.31L131.74 27.84L128.57 27.91L128.46 31.22H92.57L92.5 27.91H89.27L89.21 31.21H76.04L75.98 27.94C75.41 27.83 74.91 27.96 74.42 27.81C74.38 27.34 74.51 26.9 74.29 26.29H54.79C54.62 26.91 54.74 27.35 54.68 27.83L53.12 27.93L53.06 31.21H41.51L41.5 26.09C41.86 26.23 42.86 26.45 43 25.95C43.27 24.98 42.97 23.98 43.11 23.04C43.56 22.87 44.08 23.01 44.7 22.91L44.78 19.74L46.35 19.61L46.45 16.41L49.68 16.32L49.72 9.88L53.03 9.78001L53.07 3.35L56.29 3.26L56.35 0.0299988H72.84L72.88 3.27L76.02 3.3L76.11 6.49999L79.35 6.57999L79.42 13.09L82.61 13.17V19.61L85.9 19.67L85.97 22.9L87.57 22.99L87.6 27.76C88.15 27.93 88.64 27.92 89.18 27.76L89.22 22.12H102.2C102.25 22.39 102.22 22.69 102.37 22.95L118.74 22.93C118.74 21.69 118.81 20.78 118.69 19.69L92.53 19.67L92.48 16.42L89.2 16.38L89.22 3.32L92.5 3.24999L92.58 0.0100021H128.49L128.51 3.24L131.73 3.29V9.85H118.8C118.8 8.75 118.91 7.81 118.77 6.77H102.28L102.27 13.11L102.26 13.12ZM59.77 17.17L69.45 17.13C69.52 16.31 69.5 15.63 69.47 14.85C68.93 14.67 68.44 14.81 67.87 14.76C67.68 13.71 67.83 12.66 67.75 11.58L66.18 11.45L66.14 8.26C65.67 8.22 65.03 8.06 64.68 8.32C64.4 8.72 64.69 9.36 64.53 9.82L62.95 9.91L62.82 11.53C62.28 11.6 61.81 11.49 61.31 11.61L61.19 14.79C60.63 14.79 60.15 14.67 59.6 14.91C59.71 15.71 59.43 16.45 59.76 17.18L59.77 17.17Z" fill="var(--fill-0, black)"/>
<path id="Vector_2" d="M30.73 61.41L43.21 61.37L43.22 69.83L39.91 69.9L39.85 73.85L3.35001 73.86L3.29001 69.88L0 69.82L0.0100098 50.8L3.30002 50.74L3.33002 46.69L39.81 46.7L39.92 50.74L43.2 50.78L43.22 59.05L30.76 59.07L30.68 55.12L12.92 55.1L12.86 65.35L30.68 65.33L30.73 61.41Z" fill="var(--fill-0, black)"/>
<path id="Vector_3" d="M77.82 70.28H56.84L56.75 73.85H43.22C43.14 73.25 43.16 72.72 43.22 72.16L44.76 72.04L44.81 69.85L46.43 69.72L46.45 65.66L49.79 65.57L49.83 59.26L53.01 59.22V54.95C54.16 55.05 55.1 55.01 56.2 54.95L56.26 50.79L59.5 50.74L59.57 46.69H76.17L76.24 50.73L79.39 50.79L79.43 54.95L82.72 55.03L82.74 59.17L85.98 59.26L86 65.48C86.52 65.7 87.03 65.52 87.59 65.62L87.66 69.67L90.82 69.69C90.93 70.44 90.75 71.16 90.91 71.92C90.97 72.19 91.45 72.14 91.66 72.19C91.7 72.75 91.75 73.28 91.63 73.85H77.86L77.81 70.28H77.82ZM71.99 59.18L69.54 59.14L69.44 57.46L68.69 57.34L68.63 55.08C67.62 55.13 66.65 54.99 65.6 55.15L65.54 59.12L62.43 59.19V63.12H72V59.18H71.99Z" fill="var(--fill-0, black)"/>
<path id="Vector_4" d="M39.17 22.96V31.2H0.0100098V0.0400009L12.86 0L12.85 22.96H39.17Z" fill="var(--fill-0, black)"/>
<path id="Vector_5" d="M161.27 31.19L148.41 31.21L148.4 6.78001L133.59 6.77V0.0199966H176.08L176.09 6.77L161.27 6.79V31.19Z" fill="var(--fill-0, black)"/>
<path id="Vector_6" d="M132.67 65.28L132.69 73.85L93.42 73.86L93.43 46.71L106.18 46.7L106.2 65.29L132.67 65.28Z" fill="var(--fill-0, black)"/>
<path id="Vector_7" d="M173.73 65.28L173.76 73.86L134.59 73.85L134.6 46.71L147.27 46.67V65.29L173.73 65.28Z" fill="var(--fill-0, black)"/>
</g>
</svg>
