<svg preserveAspectRatio="xMidYMid meet" width="100%" height="100%" overflow="visible" style="display: block;" viewBox="0 0 186.74 77.08" fill="none" xmlns="http://www.w3.org/2000/svg">
<g id="Group">
<path id="Vector" d="M12.44 67.89H0V76.19H12.44V67.89Z" fill="var(--fill-0, black)"/>
<path id="Vector_2" d="M27.85 67.89H15.41V76.19H27.85V67.89Z" fill="var(--fill-0, black)"/>
<path id="Vector_3" d="M27.85 56.66H15.41V64.96H27.85V56.66Z" fill="var(--fill-0, black)"/>
<path id="Vector_4" d="M43.74 67.89H31.3V76.19H43.74V67.89Z" fill="var(--fill-0, black)"/>
<path id="Vector_5" d="M43.74 56.66H31.3V64.96H43.74V56.66Z" fill="var(--fill-0, black)"/>
<path id="Vector_6" d="M43.74 45.44H31.3V53.74H43.74V45.44Z" fill="var(--fill-0, black)"/>
<path id="Vector_7" d="M59.63 67.89H47.19V76.19H59.63V67.89Z" fill="var(--fill-0, black)"/>
<path id="Vector_8" d="M59.63 56.66H47.19V64.96H59.63V56.66Z" fill="var(--fill-0, black)"/>
<path id="Vector_9" d="M59.63 45.44H47.19V53.74H59.63V45.44Z" fill="var(--fill-0, black)"/>
<path id="Vector_10" d="M43.74 34.22H31.3V42.52H43.74V34.22Z" fill="var(--fill-0, black)"/>
<path id="Vector_11" d="M75.52 68.11H63.08V76.41H75.52V68.11Z" fill="var(--fill-0, black)"/>
<path id="Vector_12" d="M75.52 56.89H63.08V65.19H75.52V56.89Z" fill="var(--fill-0, black)"/>
<path id="Vector_13" d="M75.52 45.66H63.08V53.96H75.52V45.66Z" fill="var(--fill-0, black)"/>
<path id="Vector_14" d="M75.52 34.44H63.08V42.74H75.52V34.44Z" fill="var(--fill-0, black)"/>
<path id="Vector_15" d="M75.52 23H63.08V31.3H75.52V23Z" fill="var(--fill-0, black)"/>
<path id="Vector_16" d="M91.41 68.22H78.97V76.52H91.41V68.22Z" fill="var(--fill-0, black)"/>
<path id="Vector_17" d="M91.41 57H78.97V65.3H91.41V57Z" fill="var(--fill-0, black)"/>
<path id="Vector_18" d="M91.41 45.77H78.97V54.07H91.41V45.77Z" fill="var(--fill-0, black)"/>
<path id="Vector_19" d="M91.41 34.55H78.97V42.85H91.41V34.55Z" fill="var(--fill-0, black)"/>
<path id="Vector_20" d="M107.3 68.33H94.86V76.63H107.3V68.33Z" fill="var(--fill-0, black)"/>
<path id="Vector_21" d="M107.3 57.11H94.86V65.41H107.3V57.11Z" fill="var(--fill-0, black)"/>
<path id="Vector_22" d="M123.18 68.33H110.74V76.63H123.18V68.33Z" fill="var(--fill-0, black)"/>
<path id="Vector_23" d="M123.18 57.11H110.74V65.41H123.18V57.11Z" fill="var(--fill-0, black)"/>
<path id="Vector_24" d="M139.07 68.33H126.63V76.63H139.07V68.33Z" fill="var(--fill-0, black)"/>
<path id="Vector_25" d="M139.07 57.11H126.63V65.41H139.07V57.11Z" fill="var(--fill-0, black)"/>
<path id="Vector_26" d="M139.07 45.66H126.63V53.96H139.07V45.66Z" fill="var(--fill-0, black)"/>
<path id="Vector_27" d="M154.96 68.66H142.52V76.96H154.96V68.66Z" fill="var(--fill-0, black)"/>
<path id="Vector_28" d="M154.96 57.44H142.52V65.74H154.96V57.44Z" fill="var(--fill-0, black)"/>
<path id="Vector_29" d="M170.85 68.78H158.41V77.08H170.85V68.78Z" fill="var(--fill-0, black)"/>
<path id="Vector_30" d="M186.74 68.66H174.3V76.96H186.74V68.66Z" fill="var(--fill-0, black)"/>
<path id="Vector_31" d="M170.85 57.55H158.41V65.85H170.85V57.55Z" fill="var(--fill-0, black)"/>
<path id="Vector_32" d="M154.96 46H142.52V54.3H154.96V46Z" fill="var(--fill-0, black)"/>
<path id="Vector_33" d="M154.96 34.44H142.52V42.74H154.96V34.44Z" fill="var(--fill-0, black)"/>
<path id="Vector_34" d="M107.3 45.89H94.86V54.19H107.3V45.89Z" fill="var(--fill-0, black)"/>
<path id="Vector_35" d="M107.3 34.66H94.86V42.96H107.3V34.66Z" fill="var(--fill-0, black)"/>
<path id="Vector_36" d="M91.41 23.11H78.97V31.41H91.41V23.11Z" fill="var(--fill-0, black)"/>
<path id="Vector_37" d="M91.41 11.55H78.97V19.85H91.41V11.55Z" fill="var(--fill-0, black)"/>
<path id="Vector_38" d="M91.41 0H78.97V8.3H91.41V0Z" fill="var(--fill-0, black)"/>
</g>
</svg>
