<svg preserveAspectRatio="xMidYMid meet" width="100%" height="100%" overflow="visible" style="display: block;" viewBox="0 0 175.56 10.47" fill="none" xmlns="http://www.w3.org/2000/svg">
<g id="Group">
<path id="Vector" d="M4.97 7.27H2.03998V10.32H0V6.25L1.23999 2.18001L1.85001 0.139999H5.13998L7 6.25V10.32H4.95999V7.27H4.97ZM4.66 5.24001L3.72998 2.19H3.28L2.34 5.24001H4.66Z" fill="var(--fill-0, black)"/>
<path id="Vector_2" d="M12.02 3.71001H11.98V10.32H9.94V0.139999H12.33L13.77 3.7L15.01 6.75H15.05V0.139999H17.09V10.32H14.7L12.02 3.71001Z" fill="var(--fill-0, black)"/>
<path id="Vector_3" d="M19.91 7.42H21.95C21.95 7.99 22.4 8.44 22.97 8.44C23.54 8.44 23.99 7.99 23.99 7.42C23.99 6.75 23.54 6.36 22.82 6.25C21.13 6 19.92 4.9 19.92 3.05C19.92 1.36 21.28 0 22.97 0C24.66 0 26.02 1.36 26.02 3.05H23.98C23.98 2.48 23.53 2.03 22.96 2.03C22.39 2.03 21.94 2.48 21.94 3.05C21.94 3.72 22.39 4.11 23.11 4.22C24.8 4.47 26.01 5.57 26.01 7.42C26.01 9.11 24.65 10.47 22.96 10.47C21.27 10.47 19.91 9.11 19.91 7.42Z" fill="var(--fill-0, black)"/>
<path id="Vector_4" d="M33.77 3.77L33.05 6.94L32.27 10.32H29.98L29.35 6.94L28.11 0.150009H30.15L31.39 6.94L32.95 0.150009H34.6L36.16 6.94L37.4 0.150009H39.44L38.2 6.94L37.57 10.32H35.28L33.78 3.77H33.77Z" fill="var(--fill-0, black)"/>
<path id="Vector_5" d="M42 0.150009H47.87V2.19H44.04V4.23001H47.87V6.27H44.04V8.31H47.87V10.35H42V0.169998V0.150009Z" fill="var(--fill-0, black)"/>
<path id="Vector_6" d="M54.23 6.25H52.96V10.32H50.92V0.139999H54.68C56.37 0.139999 57.73 1.5 57.73 3.19C57.73 4.36 57.09 5.36 56.14 5.88L57.5 10.31H55.46L54.22 6.24001L54.23 6.25ZM54.67 4.22C55.24 4.22 55.69 3.77 55.69 3.2C55.69 2.63 55.24 2.18001 54.67 2.18001H52.95V4.22H54.67Z" fill="var(--fill-0, black)"/>
<path id="Vector_7" d="M66.12 2.18001H63.8V0.139999H70.47V2.18001H68.15V10.32H66.11V2.18001H66.12Z" fill="var(--fill-0, black)"/>
<path id="Vector_8" d="M77.12 6.25H75.08V10.32H73.04V0.139999H75.08V4.21001H77.12V0.139999H79.16V10.32H77.12V6.25Z" fill="var(--fill-0, black)"/>
<path id="Vector_9" d="M82.33 0.150009H88.2V2.19H84.37V4.23001H88.2V6.27H84.37V8.31H88.2V10.35H82.33V0.169998V0.150009Z" fill="var(--fill-0, black)"/>
<path id="Vector_10" d="M95.47 0.150009H101.34V2.19H97.51V4.23001H101.34V6.27H97.51V10.34H95.47V0.160004V0.150009Z" fill="var(--fill-0, black)"/>
<path id="Vector_11" d="M107.58 6.25H106.31V10.32H104.27V0.139999H108.03C109.72 0.139999 111.08 1.5 111.08 3.19C111.08 4.36 110.44 5.36 109.49 5.88L110.85 10.31H108.81L107.57 6.24001L107.58 6.25ZM108.03 4.22C108.6 4.22 109.05 3.77 109.05 3.2C109.05 2.63 108.6 2.18001 108.03 2.18001H106.31V4.22H108.03Z" fill="var(--fill-0, black)"/>
<path id="Vector_12" d="M113.78 0.150009H119.65V2.19H115.82V4.23001H119.65V6.27H115.82V8.31H119.65V10.35H113.78V0.169998V0.150009Z" fill="var(--fill-0, black)"/>
<path id="Vector_13" d="M122.46 7.27V3.05C122.46 1.36 123.82 0 125.51 0C127.2 0 128.56 1.36 128.56 3.05V8.29001H129.76V10.33H125.51C123.82 10.33 122.46 8.97 122.46 7.28V7.27ZM126.53 3.05C126.53 2.48 126.08 2.03 125.51 2.03C124.94 2.03 124.49 2.48 124.49 3.05V7.27C124.49 7.84 124.95 8.29001 125.51 8.29001H126.53V3.05Z" fill="var(--fill-0, black)"/>
<path id="Vector_14" d="M131.98 7.42V0.150009H134.02V7.42C134.02 7.99 134.47 8.44 135.04 8.44C135.61 8.44 136.06 7.99 136.06 7.42V0.150009H138.1V7.42C138.1 9.11 136.74 10.47 135.05 10.47C133.36 10.47 132 9.11 132 7.42H131.98Z" fill="var(--fill-0, black)"/>
<path id="Vector_15" d="M141.14 0.150009H147.01V2.19H143.18V4.23001H147.01V6.27H143.18V8.31H147.01V10.35H141.14V0.169998V0.150009Z" fill="var(--fill-0, black)"/>
<path id="Vector_16" d="M152.13 3.71001H152.09V10.32H150.05V0.139999H152.44L153.88 3.7L155.12 6.75H155.16V0.139999H157.2V10.32H154.81L152.13 3.71001Z" fill="var(--fill-0, black)"/>
<path id="Vector_17" d="M163.19 0C164.88 0 166.24 1.36 166.24 3.05H164.2C164.2 2.48 163.75 2.03 163.18 2.03C162.61 2.03 162.16 2.48 162.16 3.05V7.42C162.16 7.99 162.61 8.44 163.18 8.44C163.75 8.44 164.2 7.99 164.2 7.42H166.24C166.24 9.11 164.88 10.47 163.19 10.47C161.5 10.47 160.14 9.11 160.14 7.42V3.05C160.14 1.36 161.5 0 163.19 0Z" fill="var(--fill-0, black)"/>
<path id="Vector_18" d="M168.22 0.150009H170.26L171.5 4.22H172.28L173.52 0.150009H175.56L174.3 4.22L173.69 6.26001H172.91V10.33H170.87V6.26001H170.09L168.22 0.150009Z" fill="var(--fill-0, black)"/>
</g>
</svg>
