<svg preserveAspectRatio="none" width="100%" height="100%" overflow="visible" style="display: block;" viewBox="0 0 149.868 14.229" fill="none" xmlns="http://www.w3.org/2000/svg">
<g id="RGIG81">
<path id="Vector" d="M73.2568 13.6185C73.2077 13.8524 72.557 14.1555 72.1133 14.2211C71.6697 14.2867 70.5719 13.9285 70.5399 13.7802L68.9402 6.2266C68.7595 5.37345 68.7801 4.59411 68.3742 3.69899L66.3845 10.3713C66.2118 10.9515 65.8562 11.5239 64.8362 12.031C63.3051 11.8099 63.041 11.3838 62.9118 10.984L61.0776 5.32983L58.8021 9.65951C58.7049 9.84516 57.6621 10.1348 57.1452 10.1515C56.6295 10.1682 55.6793 9.88288 55.5523 9.73167L53.0916 6.79962L51.039 9.07828C50.8892 9.24491 49.9699 9.48894 49.4953 9.49813C48.9236 9.50961 47.9539 9.21276 47.8201 9.03892L45.3994 5.88941L42.8117 10.882C42.7305 11.0391 41.8695 11.3835 41.3446 11.3494C40.8198 11.3153 39.9759 10.9824 39.9164 10.8193L37.8982 5.31507L35.6958 11.4097C35.6387 11.5665 34.645 11.9336 34.1647 11.8775C33.6845 11.8214 32.8406 11.5167 32.7903 11.3576L30.5971 4.47341L28.3844 10.8889C28.3456 11.0024 27.4948 11.2494 27.2798 11.3258C27.0145 11.4199 25.9282 11.1572 25.8528 11.0014L23.3806 5.894L21.1314 9.01957C21.017 9.17832 20.0771 9.424 19.63 9.47418C19.0925 9.53421 17.6197 9.37447 17.3567 9.21375L14.4454 7.43792L1.33659 7.38741C0.966108 7.3861 0.241142 7.23423 0.0421772 7.18109C-0.22311 7.11057 0.830034 6.84095 1.33202 6.84062L13.3751 6.83242C17.2641 6.8298 16.8559 8.27893 19.2332 8.91526L21.7168 5.10777C21.7969 4.98444 22.5001 4.75812 22.8992 4.72105C25.9328 4.43831 26.2793 8.74339 27.0523 9.19407L29.2055 2.88389C29.2569 2.73366 30.1202 2.36958 30.5696 2.40959C31.019 2.44961 31.9567 2.72022 32.0127 2.89176L34.2448 9.79825L36.6095 3.48906C36.6609 3.3513 37.3916 3.07512 37.7941 3.01313C38.2767 2.93834 39.3355 3.3185 39.3893 3.48316L41.4018 9.65951L43.8214 5.27669C43.9335 5.07267 44.9146 4.72925 45.4714 4.75254C46.0283 4.77583 46.9465 5.08317 47.0586 5.2416L49.4324 8.62038L51.5364 6.37584C51.6474 6.25677 52.5153 6.05603 52.808 6.00749C53.1773 5.94648 54.3551 6.15837 54.4946 6.30368L57.1829 9.0996L59.7706 3.92006C59.8335 3.79411 60.5047 3.56319 60.8832 3.51104C61.3338 3.44905 62.4841 3.79247 62.5447 3.96992L64.5161 9.77037L67.0272 1.65715C67.0672 1.52759 67.8688 1.2314 68.1535 1.13595C68.4382 1.0405 69.6034 1.31176 69.6446 1.44985L70.5696 4.57542C71.1665 6.59298 71.0762 8.48164 72.0081 10.5458L72.8132 6.52541L74.1304 0.500929C74.1716 0.311014 75.195 -0.0507763 75.649 0.00596866C76.1029 0.0627137 76.8348 0.350375 76.8725 0.510769L79.1983 10.3654L81.4087 2.75302C81.4567 2.58672 82.4001 2.30595 82.8449 2.27314C83.2897 2.24034 84.1725 2.55884 84.2308 2.70972L86.6332 8.88148L88.8161 4.63183C88.9019 4.46488 89.6692 4.17787 90.1334 4.12047C90.6903 4.05159 91.78 4.40912 91.9001 4.59247L94.1539 8.03817L96.6787 5.70113C96.8193 5.57059 97.8084 5.3377 98.2693 5.36132C98.7312 5.38461 99.6517 5.60929 99.8095 5.75427L102.236 7.97192L104.582 4.57837C104.697 4.41338 105.442 4.15262 105.932 4.11555C106.421 4.07849 107.443 4.40453 107.518 4.54819L109.792 8.93232L112.283 2.83764C112.341 2.69496 113.193 2.39615 113.678 2.3909C114.162 2.38532 115.043 2.67692 115.092 2.82157L117.15 8.92543L119.4 2.24953C119.448 2.10685 120.34 1.75752 120.818 1.79622C121.294 1.83526 122.129 2.13145 122.178 2.28233L124.384 9.0481L126.602 4.6233C126.674 4.47997 127.633 4.21494 128.072 4.16508C128.511 4.11523 129.451 4.37008 129.564 4.52294L132.168 8.06146C133.421 7.50746 133.797 6.84817 136.096 6.84686L148.533 6.83964C148.859 6.83964 149.607 7.00627 149.831 7.043C150.055 7.07974 149.194 7.38938 148.818 7.39036L135.549 7.41726L133.921 8.459C133.67 8.61907 132.695 8.89853 132.137 8.87852C131.579 8.85852 130.643 8.54658 130.502 8.3734L128.15 5.49285L125.804 10.2489C125.731 10.3962 124.929 10.6822 124.441 10.7065C123.953 10.7308 122.952 10.4001 122.894 10.2306L120.765 4.00829L118.497 10.7819C118.447 10.9325 117.659 11.2113 117.205 11.2615C116.754 11.3113 115.792 10.9617 115.731 10.7721L113.672 4.30645L111.295 10.1984C111.233 10.3509 110.455 10.6255 110.008 10.6891C109.472 10.7655 108.349 10.3883 108.264 10.1987L106.077 5.31769L103.865 8.48787C103.755 8.64662 102.776 8.88869 102.31 8.8982C101.845 8.90772 100.887 8.685 100.739 8.54625L98.2052 6.1751L95.7193 8.51969C95.5547 8.6745 94.6742 8.90247 94.1996 8.9028C93.7251 8.9028 92.72 8.6499 92.6216 8.5128L90.3598 5.33475L88.0694 10.2709C87.994 10.4346 86.9889 10.7747 86.4823 10.7324C85.9746 10.6901 85.189 10.3831 85.1273 10.2217L82.8632 4.30645L80.5339 12.6499C80.4939 12.7943 79.6694 13.0793 79.2429 13.121C78.7307 13.1711 77.7884 12.7628 77.7518 12.6066L76.3191 6.52935C76.0503 5.38789 76.048 4.34483 75.4466 3.24896L73.2625 13.6195L73.2568 13.6185Z" fill="var(--fill-0, black)"/>
</g>
</svg>
